<svg version="1" xmlns="http://www.w3.org/2000/svg" width="3584" height="3584" viewBox="0 0 2688.000000 2688.000000"><path d="M1095 319.8c-3.8.2-19.6 2-24.5 2.6-12.7 1.8-36.1 8.9-69.5 21.1-6.9 2.5-18.6 6.6-26 9.1-23.9 8.1-48.5 18.7-94.5 40.9-15 7.3-18.9 9.1-34 16-14.5 6.6-17.6 8-28 12.2-20.2 8.3-45.4 17-52 17.8-1.6.2-8.2.7-14.5 1.1-16.2.9-17.7 1-25.5 1.8-3.8.4-8.6.9-10.5 1.1-50.5 5.2-94.3 18.1-124.4 36.8-8.1 5-13 8.3-15.2 10.2-.6.5-3.1 2.5-5.5 4.4-4.4 3.4-21.4 20.3-31.9 31.7-16.6 17.8-43.7 49.4-52.2 60.8-1.3 1.6-3.5 4.4-4.9 6-7.9 9.3-36.9 49.1-49.2 67.6-3.1 4.7-6 8.9-6.5 9.5-3.4 4.3-35.5 56.6-41.1 67-1.2 2.2-2.6 4.7-3.1 5.5-2.8 4.3-14.7 26.4-20.7 38.3-2 4-4.8 9-6.1 11.2-1.4 2.2-2.5 4.1-2.3 4.3.1.1-2.6 6-6 13-21.4 44.4-36.2 78.7-51.9 120.7-5.1 13.7-22.8 65.4-25.9 75.5-3.5 11.8-13.1 44.9-14.7 51-.8 3-1.9 6.8-2.4 8.5-1 3.4-9.8 38.7-10.4 41.9-.2 1.2-1.4 6.4-2.6 11.6-3.2 13.9-8.5 39.2-9.5 45.1-.3 1.9-.8 4.1-1 4.9-.2.8-.7 3.1-1 5-.6 3.8-1.6 9.3-2.1 12.5-2.7 14.5-2.1 41.8 1.2 63 1.7 11.4 9.1 38 13.3 48 14.7 35.1 30.2 62.1 51.6 89.5 3.6 4.7 9.1 11.8 12.2 15.9 5 6.5 19.8 23.5 25.8 29.7 10.6 10.9 27 28.9 34.4 37.8 8 9.5 21.1 27.6 21.1 28.9 0 .3 2.6 4.6 5.7 9.6 3.2 5 9.1 14.3 13.2 20.8 25.7 40.6 60.9 93.3 84.1 125.9 2.5 3.5 5.9 8.2 7.5 10.6 10.3 14.7 46.2 61.6 60.9 79.4 13.3 16.4 31.6 37.5 45.6 52.8 20.8 22.8 58 59.9 74 73.6 1.4 1.2 3.6 3.1 5 4.3 1.4 1.3 6.3 5.5 11 9.6l8.5 7.3 1.3-3.3c.8-1.9 1.8-4.5 2.3-5.8 1.8-4.5 1.9-1.4.4 6-3 14.1-5.3 20.2-18.3 46.9-9.2 19.1-17.8 39.1-18.6 43.3-.2 1.2-.8 4-1.4 6.2-3.5 13.3-2.9 34 1.4 55.4 1.9 9.6 11.4 30.4 18.8 41.4 2.5 3.7 4.6 7 4.6 7.2 0 .6.6 1.4 12.8 16 5.5 6.6 13.3 15.5 17.4 19.7 4 4.2 10.5 10.9 14.3 15 3.9 4 11.5 12.7 17.1 19.3 18.7 22.3 25.9 28.7 44.9 40.1 23.4 14 55 28.9 87.1 41.2 7.1 2.7 13.8 5.3 14.9 5.7 1.1.5 2.2.9 2.5.9.3.1 3.7 1.4 7.5 2.8 3.9 1.5 12.9 4.8 20 7.3 27.3 9.9 40.4 14.7 52.5 19.4 21.1 8.3 21.5 8.4 34.5 8.7 12 .2 24.6-1.7 36-5.7 2.2-.7 4.3-1.4 4.8-1.5.4-.1.8-.2 1-.4.1-.1.9-.3 1.7-.5.8-.2 5.3-1.8 10-3.6 10.5-3.9 32-10.7 36.3-11.4 1.8-.3 3.9-.8 4.7-1 .8-.2 4.7-.6 8.6-.9 6.6-.5 7.6-.3 13 2.5 10.5 5.5 26.7 16.8 39.7 27.5 12.5 10.3 38.6 31 43.7 34.6 16.5 11.7 27 16.1 47 19.7 10.1 1.9 19.3 2.3 49.5 2.6 16.5.1 34.5.6 40 1 5.5.5 11.3.8 12.9.8l3-.1-2.4 1.3c-2.4 1.3-1.1 1.8 33.5 12.5 3.8 1.1 26.1 6.7 29.5 7.3 1.4.3 5.4 1.2 9 2 3.6.8 8.3 1.8 10.5 2.1 2.2.4 4.7.8 5.5 1.1 1.6.4 2.7.6 22.5 3.5 12 1.8 15.5 2.2 28.5 3.6 2.5.2 6.3.6 8.5.9 3.6.4 11.8.9 32.5 2.1 7.9.4 66.1.4 74.5-.1 12.2-.6 28.2-1.6 33.5-2 11.4-.9 20.1-1.7 22.7-2 1.6-.2 5.5-.6 8.8-.9 9.2-1 32.7-3.7 35.5-4.1 1.4-.2 4.5-.6 7-1s5.6-.8 7-1c1.4-.2 4.8-.7 7.5-1 2.8-.4 5.7-.8 6.5-1 .8-.2 3.5-.7 6-1 2.5-.4 10.8-1.7 18.5-3 7.7-1.3 15.6-2.6 17.5-3 1.9-.3 10.7-1.9 19.5-3.6 8.8-1.7 17.1-3.3 18.5-3.5 11.6-2.1 30.2-5.6 33-6.4 1.9-.5 5.2-1.2 7.4-1.5 2.1-.4 4.6-.8 5.5-1 6.7-1.3 49.8-12.1 58.6-14.7 3.9-1.1 9.9-2.8 13.5-3.8 12.3-3.4 49.8-15.5 69-22.2 14.9-5.2 42.8-15.3 46.5-16.9 5.7-2.3 7.1-2.8 14.5-5.5 7.9-2.8 45.3-17.5 96-37.6 80.2-31.8 106.4-41.5 155-57.8 32.5-10.9 81.9-25.3 98-28.5.9-.2 6.9-1.5 13.5-3s13.1-2.9 14.5-3.1c1.4-.3 3.2-.7 4-.9.8-.2 3.1-.7 5-1 1.9-.3 4.2-.8 5-1 .8-.2 2.9-.6 4.5-.9 1.7-.3 8.4-1.4 15-2.5s14-2.3 16.5-2.6c2.5-.3 5.6-.8 7-1 1.4-.2 4.1-.6 6.1-.9 13.4-1.9 39.2-8.4 56.9-14.3 38.5-12.8 84.5-38 110.7-60.7l3.3-2.8-.1-409.2c0-395.3-.1-409.5-1.9-419.6-11.6-65.3-34.2-113.9-82.8-178.5-8.5-11.3-33.2-42.2-37.7-47.1-.5-.6-2.9-3.3-5.1-6-6.6-7.8-17.8-20.8-18.9-22-.5-.6-3-3.5-5.5-6.4-2.5-3-7.5-8.8-11.1-12.9-14.7-17-36.4-43.7-50.4-62.1-8.2-10.7-15.4-20-15.9-20.7-.6-.7-1.5-1.8-2.1-2.5-6-7.9-48.7-51.4-71.5-72.8-3-2.9-9.6-9.1-14.5-13.8-14.3-13.8-40.3-37.5-55.1-50.3-2.8-2.4-7.9-6.9-11.4-9.9-15.2-13.2-49.3-40.9-58.4-47.5-1.5-1.1-3.6-2.7-4.6-3.6-1-.8-3.1-2.4-4.5-3.5-1.5-1-6-4.4-10-7.4s-8.1-6.1-9.1-6.8c-1.1-.7-5.5-3.8-9.9-6.9-9.7-6.9-41.6-28.3-42.1-28.3-.2 0-4.1-2.4-8.7-5.4-4.6-2.9-10.1-6.3-12.3-7.4-3.5-1.8-45-15.8-59.9-20.2-3.3-1-17-5.2-30.5-9.3-26.3-8.1-36.6-11.1-93-27.5-24.6-7.2-71.3-20.9-75.5-22.3-1.6-.5-11.8-3.6-22.5-6.8-39.7-12-86.6-27.3-111-36.1-6.3-2.3-12.9-4.6-14.7-5.1-4.8-1.4-32.6-11.9-52.8-19.9-21.1-8.4-31.3-12-45-16.2-10-3-33-8.2-41.5-9.3-2.5-.4-5.6-.8-7-1-1.4-.2-5.2-.7-8.5-1-3.3-.4-7-.8-8.3-1-15.6-2.5-91.1-2.5-128.7 0-9.5.6-32 .6-35 0-29.3-6-42.4-11.1-92.3-35.6-16.6-8.2-30.5-14.9-30.8-14.9-2.4 0-11.5-5.6-19.4-11.9-9-7.2-33.7-24.2-39.7-27.3-12.5-6.5-23.8-12.1-29.3-14.3-7.6-3.2-18.9-7.5-21-8-.8-.1-4.2-1.1-7.5-2.1-7.2-2.1-5.8-1.8-17.5-4.3-17.6-3.6-42-5.5-58-4.3z"/></svg>